<svg fill="none" height="469" viewBox="0 0 520 469" width="520" xmlns="http://www.w3.org/2000/svg">
    <path
        d="M492.171 102.913L492.173 102.916L511.578 130.991C517.028 138.873 519.124 148.597 517.405 158.025C515.685 167.452 510.291 175.811 502.409 181.261L251.057 355.081C251.055 355.082 251.053 355.084 251.051 355.085C249.141 356.415 246.987 357.398 244.701 357.944L244.701 357.944L244.23 356L244.694 357.945L492.171 102.913ZM492.171 102.913C486.712 95.0437 478.355 89.6595 468.933 87.941C459.51 86.2224 449.791 88.3097 441.905 93.7453L441.902 93.747M492.171 102.913L441.902 93.747M441.902 93.747L190.519 267.597L190.515 267.599M441.902 93.747L190.515 267.599M190.515 267.599C188.601 268.93 186.947 270.6 185.635 272.526M190.515 267.599L185.635 272.526M413.388 139.061L449.948 191.921L490.437 163.945C490.438 163.944 490.439 163.943 490.441 163.942M413.388 139.061L495.904 141.83C501.246 149.596 499.317 160.211 491.578 165.587L490.441 163.942M413.388 139.061L453.888 111.075C457.175 108.804 461.229 107.931 465.159 108.649C469.089 109.366 472.574 111.616 474.846 114.902L474.846 114.902L494.256 142.964M413.388 139.061L494.259 142.968M490.441 163.942C497.27 159.195 498.974 149.826 494.259 142.968M490.441 163.942L494.259 142.968M494.259 142.968L495.901 141.832L494.256 142.964M494.259 142.968C494.258 142.967 494.257 142.965 494.256 142.964M494.259 142.968L494.256 142.964M185.635 272.526C185.635 272.527 185.634 272.527 185.634 272.528L185.635 272.526ZM152.294 380.31L151.823 378.366L152.293 380.31L152.294 380.31ZM63.7333 415.6H217.333C220.127 415.6 222.806 414.49 224.782 412.515C226.757 410.539 227.867 407.86 227.867 405.067C227.867 402.273 226.757 399.594 224.782 397.618C222.806 395.643 220.127 394.533 217.333 394.533H63.7333C60.9397 394.533 58.2605 395.643 56.2852 397.618C54.3098 399.594 53.2 402.273 53.2 405.067C53.2 407.86 54.3098 410.539 56.2852 412.515C58.2605 414.49 60.9397 415.6 63.7333 415.6ZM209.876 279.819L361.039 175.307L397.599 228.175L246.436 332.686L209.876 279.819ZM396.086 151.039L432.646 203.906L414.884 216.189L378.316 163.329L396.086 151.039ZM195.286 295.755L226.38 340.714L194.995 348.323L177.093 322.431L195.286 295.755ZM173.07 353.642L152.391 358.652L164.371 341.075L173.07 353.642ZM63.7333 202.267H258.72C261.514 202.267 264.193 201.157 266.168 199.182C268.144 197.206 269.253 194.527 269.253 191.733C269.253 188.94 268.144 186.261 266.168 184.285C264.193 182.31 261.514 181.2 258.72 181.2H63.7333C60.9397 181.2 58.2605 182.31 56.2852 184.285C54.3098 186.261 53.2 188.94 53.2 191.733C53.2 194.527 54.3098 197.206 56.2852 199.182C58.2605 201.157 60.9397 202.267 63.7333 202.267ZM63.7333 244.933H197.024C199.818 244.933 202.497 243.824 204.472 241.848C206.448 239.873 207.557 237.194 207.557 234.4C207.557 231.606 206.448 228.927 204.472 226.952C202.497 224.976 199.818 223.867 197.024 223.867H63.7333C60.9397 223.867 58.2605 224.976 56.2852 226.952C54.3098 228.927 53.2 231.606 53.2 234.4C53.2 237.194 54.3098 239.873 56.2852 241.848C58.2605 243.824 60.9397 244.933 63.7333 244.933ZM63.7333 287.6H153.931C156.724 287.6 159.403 286.49 161.379 284.515C163.354 282.539 164.464 279.86 164.464 277.067C164.464 274.273 163.354 271.594 161.379 269.618C159.403 267.643 156.724 266.533 153.931 266.533H63.7333C60.9397 266.533 58.2605 267.643 56.2852 269.618C54.3098 271.594 53.2 274.273 53.2 277.067C53.2 279.86 54.3098 282.539 56.2852 284.515C58.2605 286.49 60.9397 287.6 63.7333 287.6ZM63.7333 330.267H124.832C127.626 330.267 130.305 329.157 132.28 327.182C134.256 325.206 135.365 322.527 135.365 319.733C135.365 316.94 134.256 314.261 132.28 312.285C130.305 310.31 127.626 309.2 124.832 309.2H63.7333C60.9397 309.2 58.2605 310.31 56.2852 312.285C54.3098 314.261 53.2 316.94 53.2 319.733C53.2 322.527 54.3098 325.206 56.2852 327.182C58.2605 329.157 60.9397 330.267 63.7333 330.267ZM63.7333 372.933H105.035C107.828 372.933 110.507 371.824 112.483 369.848C114.458 367.873 115.568 365.194 115.568 362.4C115.568 359.606 114.458 356.927 112.483 354.952C110.507 352.976 107.828 351.867 105.035 351.867H63.7333C60.9397 351.867 58.2605 352.976 56.2852 354.952C54.3098 356.927 53.2 359.606 53.2 362.4C53.2 365.194 54.3098 367.873 56.2852 369.848C58.2605 371.824 60.9397 372.933 63.7333 372.933Z"
        fill="black" stroke="black" stroke-width="4" />
    <path
        d="M23.0667 439.2V151.067H336.8C339.594 151.067 342.273 149.957 344.248 147.982C346.224 146.006 347.333 143.327 347.333 140.533V89.3333V89.3309C347.319 77.4896 342.609 66.1373 334.236 57.7642C326.165 49.6935 315.327 45.0259 303.95 44.6865C302.407 32.871 298.297 22.4921 292.389 14.9162C286.181 6.95671 277.896 2 268.533 2C259.171 2 250.886 6.95671 244.678 14.9162C238.773 22.4879 234.664 32.8594 233.119 44.6667H210.081C208.536 32.8594 204.427 22.4879 198.522 14.9162C192.314 6.95671 184.029 2 174.667 2C165.304 2 157.019 6.95671 150.811 14.9162C144.906 22.4879 140.797 32.8594 139.253 44.6667H116.214C114.669 32.8594 110.561 22.4879 104.655 14.9162C98.4478 6.95671 90.1623 2 80.8 2C71.4377 2 63.1522 6.95671 56.9445 14.9162C51.0359 22.4921 46.9262 32.871 45.3834 44.6865C34.0068 45.0259 23.1682 49.6935 15.0975 57.7642C6.72443 66.1373 2.01419 77.4896 2 89.3309V89.3333V439.2C2 446.52 4.90785 453.54 10.0839 458.716C15.2599 463.892 22.28 466.8 29.6 466.8H319.733C327.053 466.8 334.073 463.892 339.249 458.716C344.425 453.54 347.333 446.52 347.333 439.2V328.267C347.333 325.473 346.224 322.794 344.248 320.818C342.273 318.843 339.594 317.733 336.8 317.733C334.006 317.733 331.327 318.843 329.352 320.818C327.376 322.794 326.267 325.473 326.267 328.267V439.2C326.267 440.933 325.578 442.595 324.353 443.82C323.128 445.045 321.466 445.733 319.733 445.733H29.6C27.8672 445.733 26.2055 445.045 24.9802 443.82C23.755 442.595 23.0667 440.933 23.0667 439.2ZM23.0667 89.3333C23.0667 83.0742 25.5531 77.0715 29.9789 72.6456C34.4048 68.2198 40.4076 65.7333 46.6667 65.7333H72.2667C75.0603 65.7333 77.7395 64.6236 79.7149 62.6482C81.6902 60.6728 82.8 57.9936 82.8 55.2C82.8 52.4064 81.6902 49.7272 79.7149 47.7518C77.7395 45.7764 75.0603 44.6667 72.2667 44.6667H66.7412C67.8989 38.371 70.01 33.0903 72.504 29.3146C75.3629 24.9864 78.408 23.0667 80.8 23.0667C82.1971 23.0667 83.8292 23.7031 85.5732 25.1788C87.3106 26.6489 89.0464 28.8634 90.5908 31.7491C93.6774 37.5162 95.8667 45.7187 95.8667 55.2C95.8667 64.6813 93.6774 72.8838 90.5908 78.6509C89.0464 81.5366 87.3106 83.7511 85.5732 85.2212C83.8292 86.6969 82.1971 87.3333 80.8 87.3333C78.0064 87.3333 75.3272 88.4431 73.3518 90.4185C71.3764 92.3939 70.2667 95.0731 70.2667 97.8667C70.2667 100.66 71.3764 103.339 73.3518 105.315C75.3272 107.29 78.0064 108.4 80.8 108.4C90.1623 108.4 98.4478 103.443 104.655 95.4838C110.561 87.9121 114.669 77.5406 116.214 65.7333H166.133C168.927 65.7333 171.606 64.6236 173.582 62.6482C175.557 60.6728 176.667 57.9936 176.667 55.2C176.667 52.4064 175.557 49.7272 173.582 47.7518C171.606 45.7764 168.927 44.6667 166.133 44.6667H160.608C161.766 38.371 163.877 33.0903 166.371 29.3146C169.23 24.9864 172.275 23.0667 174.667 23.0667C176.064 23.0667 177.696 23.7031 179.44 25.1788C181.177 26.6489 182.913 28.8634 184.457 31.7491C187.544 37.5162 189.733 45.7187 189.733 55.2C189.733 64.6813 187.544 72.8838 184.457 78.6509C182.913 81.5366 181.177 83.7511 179.44 85.2212C177.696 86.6969 176.064 87.3333 174.667 87.3333C171.873 87.3333 169.194 88.4431 167.218 90.4185C165.243 92.3939 164.133 95.0731 164.133 97.8667C164.133 100.66 165.243 103.339 167.218 105.315C169.194 107.29 171.873 108.4 174.667 108.4C184.029 108.4 192.314 103.443 198.522 95.4838C204.427 87.9121 208.536 77.5406 210.081 65.7333H260C262.794 65.7333 265.473 64.6236 267.448 62.6482C269.424 60.6728 270.533 57.9936 270.533 55.2C270.533 52.4064 269.424 49.7272 267.448 47.7518C265.473 45.7764 262.794 44.6667 260 44.6667H254.475C255.632 38.371 257.743 33.0903 260.237 29.3146C263.096 24.9864 266.141 23.0667 268.533 23.0667C269.93 23.0667 271.563 23.7031 273.307 25.1788C275.044 26.6489 276.78 28.8634 278.324 31.7491C281.411 37.5162 283.6 45.7187 283.6 55.2C283.6 64.6813 281.411 72.8838 278.324 78.6509C276.78 81.5366 275.044 83.7511 273.307 85.2212C271.563 86.6969 269.93 87.3333 268.533 87.3333C265.74 87.3333 263.061 88.4431 261.085 90.4185C259.11 92.3939 258 95.0731 258 97.8667C258 100.66 259.11 103.339 261.085 105.315C263.061 107.29 265.74 108.4 268.533 108.4C277.896 108.4 286.181 103.443 292.389 95.4838C298.288 87.9195 302.395 77.5608 303.943 65.7678C309.737 66.0814 315.23 68.5215 319.354 72.6456C323.78 77.0715 326.267 83.0742 326.267 89.3333V130H23.0667V89.3333Z"
        fill="black" stroke="black" stroke-width="4" />
    <path
        d="M283.6 388V403.067H268.533C265.74 403.067 263.061 404.176 261.085 406.152C259.11 408.127 258 410.806 258 413.6C258 416.394 259.11 419.073 261.085 421.048C263.061 423.024 265.74 424.133 268.533 424.133H294.133C296.927 424.133 299.606 423.024 301.582 421.048C303.557 419.073 304.667 416.394 304.667 413.6V388C304.667 385.206 303.557 382.527 301.582 380.552C299.606 378.576 296.927 377.467 294.133 377.467C291.34 377.467 288.661 378.576 286.685 380.552C284.71 382.527 283.6 385.206 283.6 388Z"
        fill="black" stroke="black" stroke-width="4" />
</svg>
