<svg fill="none" height="784" viewBox="0 0 693 784" width="693" xmlns="http://www.w3.org/2000/svg">
    <path
        d="M160.172 779.98H532.148C618.044 779.98 688.32 713.788 688.32 631.984V151.996C688.32 70.1919 618.044 4 532.148 4H160.172C74.2764 4 4 70.1919 4 151.996V631.984C4 713.788 74.2764 779.98 160.172 779.98ZM45.816 151.996C45.816 92.6523 96.9053 43.9992 160.172 43.9992H346.16H532.148C595.415 43.9992 646.504 92.6523 646.504 151.996V631.984C646.504 691.328 595.415 739.981 532.148 739.981H160.172C96.9053 739.981 45.816 691.328 45.816 631.984V151.996ZM553.056 183.995C553.056 172.749 543.479 163.996 532.148 163.996H329.252C317.921 163.996 308.344 172.749 308.344 183.995C308.344 195.242 317.921 203.995 329.252 203.995H532.148C543.479 203.995 553.056 195.242 553.056 183.995ZM553.056 375.99C553.056 364.744 543.479 355.991 532.148 355.991H329.252C317.921 355.991 308.344 364.744 308.344 375.99C308.344 387.237 317.921 395.99 329.252 395.99H532.148C543.479 395.99 553.056 387.237 553.056 375.99ZM553.056 567.985C553.056 556.739 543.479 547.986 532.148 547.986H329.252C317.921 547.986 308.344 556.739 308.344 567.985C308.344 579.232 317.921 587.985 329.252 587.985H532.148C543.479 587.985 553.056 579.232 553.056 567.985ZM160.172 235.994H227.804C239.135 235.994 248.712 227.241 248.712 215.995V151.996C248.712 140.75 239.135 131.997 227.804 131.997H160.172C148.841 131.997 139.264 140.75 139.264 151.996V215.995C139.264 227.241 148.841 235.994 160.172 235.994ZM206.896 171.996V195.995H181.08V171.996H206.896ZM160.172 427.989H227.804C239.135 427.989 248.712 419.236 248.712 407.99V343.991C248.712 332.745 239.135 323.992 227.804 323.992H160.172C148.841 323.992 139.264 332.745 139.264 343.991V407.99C139.264 419.236 148.841 427.989 160.172 427.989ZM206.896 363.991V387.99H181.08V363.991H206.896ZM160.172 619.984H227.804C239.135 619.984 248.712 611.231 248.712 599.985V535.986C248.712 524.74 239.135 515.987 227.804 515.987H160.172C148.841 515.987 139.264 524.74 139.264 535.986V599.985C139.264 611.231 148.841 619.984 160.172 619.984ZM206.896 555.986V579.985H181.08V555.986H206.896Z"
        fill="white" stroke="white" stroke-width="8" />
</svg>
