<svg fill="none" height="506" viewBox="0 0 490 506" width="490" xmlns="http://www.w3.org/2000/svg">
    <path
        d="M266.178 243.674C289.311 243.674 308.207 224.861 308.207 201.645C308.207 178.431 289.391 159.616 266.178 159.616C242.964 159.616 224.148 178.431 224.148 201.645C224.148 224.861 243.044 243.674 266.178 243.674ZM266.178 179.208C278.571 179.208 288.691 189.329 288.691 201.722C288.691 214.116 278.571 224.236 266.178 224.236C253.784 224.236 243.664 214.116 243.664 201.722C243.664 189.329 253.784 179.208 266.178 179.208Z"
        fill="black" stroke="black" stroke-width="4" />
    <mask fill="black" height="505" id="path-2-outside-1_138_6" maskUnits="userSpaceOnUse"
        width="489" x="0.708984" y="0.912598">
        <rect fill="white" height="505" width="489" x="0.708984" y="0.912598" />
        <path
            d="M461.436 4.9126H70.9199C57.732 4.9126 47.0266 15.6181 47.0266 28.8059V115.768C47.0266 128.956 57.732 139.739 70.9199 139.739H155.71V226.159L98.692 282.634C97.2181 284.108 95.9769 285.814 95.046 287.754L53.0775 375.957L49.9744 372.854C46.6387 369.519 42.1393 367.657 37.3296 367.579H37.252C32.4423 367.579 28.0205 369.441 24.6072 372.777L9.94535 387.439C2.96353 394.42 2.96353 405.824 9.94535 412.806L92.9514 495.812C96.3647 499.225 100.864 501.087 105.674 501.087C110.484 501.087 114.983 499.225 118.396 495.812L133.058 481.15C136.394 477.814 138.256 473.315 138.256 468.505C138.256 463.696 136.394 459.196 132.981 455.783L131.041 453.844L181.776 403.652C183.715 401.713 184.336 398.997 183.715 396.437H350.891C365.165 396.437 376.724 384.801 376.724 370.605V139.739H408.607C412.874 139.739 416.365 136.248 416.365 131.982C416.365 127.715 412.874 124.224 408.607 124.224H376.724V97.5381H394.256C401.005 97.5381 407.288 94.9005 412.098 90.1684C416.908 85.4362 419.468 79.075 419.468 72.3259C419.468 58.4399 408.142 47.1138 394.256 47.1138H138.256C131.507 47.1138 125.223 49.7514 120.413 54.4835C115.604 59.2156 113.044 65.5768 113.044 72.3259C113.044 86.212 124.37 97.5381 138.256 97.5381H155.788V124.224H70.9199C66.2654 124.224 62.5417 120.423 62.5417 115.768V28.8059C62.5417 24.1514 66.2654 20.4277 70.9199 20.4277H461.436C466.091 20.4277 469.814 24.1514 469.814 28.8059V115.768C469.814 120.423 466.091 124.224 461.436 124.224C457.17 124.224 453.679 127.715 453.679 131.982C453.679 136.248 457.17 139.739 461.436 139.739C474.624 139.739 485.33 128.956 485.33 115.768V28.8059C485.33 15.6956 474.624 4.9126 461.436 4.9126ZM121.965 470.134L107.303 484.796C106.139 485.96 105.131 486.037 103.89 484.796L20.8835 401.79C19.9526 400.859 19.9526 399.308 20.8835 398.377L35.5453 383.715C36.0108 383.25 36.5538 383.094 37.1744 383.094C37.795 383.094 38.4156 383.327 38.8811 383.793L121.887 466.799C122.508 467.419 122.585 468.04 122.585 468.505C122.663 468.893 122.508 469.591 121.965 470.134ZM376.646 62.629H394.178C399.531 62.629 403.875 66.9732 403.875 72.3259C403.875 74.8859 402.867 77.3684 401.005 79.1526C399.143 80.9368 396.738 82.0229 394.178 82.0229H376.646V62.629ZM171.225 62.629H361.053V370.527C361.053 376.19 356.399 380.845 350.736 380.845H191.007L199.851 354.391C201.713 348.884 204.893 343.763 209.005 339.652L216.84 331.894C222.27 336.239 225.451 342.677 225.451 349.814C225.451 354.081 228.942 357.572 233.208 357.572H298.993C303.259 357.572 306.75 354.081 306.75 349.814C306.75 337.014 317.145 326.542 330.023 326.542C334.29 326.542 337.78 323.051 337.78 318.784V123.216C337.78 118.949 334.29 115.458 330.023 115.458C317.223 115.458 306.75 105.063 306.75 92.1853C306.75 87.9187 303.259 84.4278 298.993 84.4278H233.208C228.942 84.4278 225.451 87.9187 225.451 92.1853C225.451 104.985 215.056 115.458 202.178 115.458C197.911 115.458 194.421 118.949 194.421 123.216V284.263L171.148 307.303V62.629H171.225ZM229.64 284.418C224.985 279.686 218.779 277.126 212.108 277.048C212.108 277.048 212.03 277.048 211.953 277.048C211.254 277.048 210.634 277.204 210.013 277.204V130.197C225.218 127.094 237.165 115.148 240.268 99.9429H292.088C295.191 115.148 307.138 127.094 322.343 130.197V311.88C307.138 314.983 295.191 326.93 292.088 342.134H240.268C238.561 333.911 234.217 326.542 227.933 321.034L229.485 319.56C234.217 314.905 236.777 308.699 236.854 302.028C236.854 295.434 234.294 289.15 229.64 284.418ZM138.178 82.0229C132.825 82.0229 128.481 77.6787 128.481 72.3259C128.481 69.7659 129.49 67.2835 131.351 65.4993C133.213 63.715 135.618 62.629 138.178 62.629H155.71V82.0229H138.178ZM160.52 333.136C163.39 334.377 166.726 333.679 168.976 331.507L205.514 295.356C207.298 293.572 209.315 292.719 212.108 292.641C214.59 292.641 216.917 293.65 218.624 295.356C222.193 299.002 222.193 304.898 218.547 308.467L198.144 328.636C192.326 334.454 187.827 341.669 185.189 349.427L173.863 383.25C173.708 383.715 173.553 384.103 173.32 384.491L172.932 385.499C172.234 387.284 171.458 391.783 170.76 392.481L120.258 442.44L65.0241 386.818L109.087 294.425C109.242 294.193 109.397 293.882 109.63 293.65L155.788 247.957V325.921C155.71 329.102 157.65 331.894 160.52 333.136Z" />
    </mask>
    <path
        d="M461.436 4.9126H70.9199C57.732 4.9126 47.0266 15.6181 47.0266 28.8059V115.768C47.0266 128.956 57.732 139.739 70.9199 139.739H155.71V226.159L98.692 282.634C97.2181 284.108 95.9769 285.814 95.046 287.754L53.0775 375.957L49.9744 372.854C46.6387 369.519 42.1393 367.657 37.3296 367.579H37.252C32.4423 367.579 28.0205 369.441 24.6072 372.777L9.94535 387.439C2.96353 394.42 2.96353 405.824 9.94535 412.806L92.9514 495.812C96.3647 499.225 100.864 501.087 105.674 501.087C110.484 501.087 114.983 499.225 118.396 495.812L133.058 481.15C136.394 477.814 138.256 473.315 138.256 468.505C138.256 463.696 136.394 459.196 132.981 455.783L131.041 453.844L181.776 403.652C183.715 401.713 184.336 398.997 183.715 396.437H350.891C365.165 396.437 376.724 384.801 376.724 370.605V139.739H408.607C412.874 139.739 416.365 136.248 416.365 131.982C416.365 127.715 412.874 124.224 408.607 124.224H376.724V97.5381H394.256C401.005 97.5381 407.288 94.9005 412.098 90.1684C416.908 85.4362 419.468 79.075 419.468 72.3259C419.468 58.4399 408.142 47.1138 394.256 47.1138H138.256C131.507 47.1138 125.223 49.7514 120.413 54.4835C115.604 59.2156 113.044 65.5768 113.044 72.3259C113.044 86.212 124.37 97.5381 138.256 97.5381H155.788V124.224H70.9199C66.2654 124.224 62.5417 120.423 62.5417 115.768V28.8059C62.5417 24.1514 66.2654 20.4277 70.9199 20.4277H461.436C466.091 20.4277 469.814 24.1514 469.814 28.8059V115.768C469.814 120.423 466.091 124.224 461.436 124.224C457.17 124.224 453.679 127.715 453.679 131.982C453.679 136.248 457.17 139.739 461.436 139.739C474.624 139.739 485.33 128.956 485.33 115.768V28.8059C485.33 15.6956 474.624 4.9126 461.436 4.9126ZM121.965 470.134L107.303 484.796C106.139 485.96 105.131 486.037 103.89 484.796L20.8835 401.79C19.9526 400.859 19.9526 399.308 20.8835 398.377L35.5453 383.715C36.0108 383.25 36.5538 383.094 37.1744 383.094C37.795 383.094 38.4156 383.327 38.8811 383.793L121.887 466.799C122.508 467.419 122.585 468.04 122.585 468.505C122.663 468.893 122.508 469.591 121.965 470.134ZM376.646 62.629H394.178C399.531 62.629 403.875 66.9732 403.875 72.3259C403.875 74.8859 402.867 77.3684 401.005 79.1526C399.143 80.9368 396.738 82.0229 394.178 82.0229H376.646V62.629ZM171.225 62.629H361.053V370.527C361.053 376.19 356.399 380.845 350.736 380.845H191.007L199.851 354.391C201.713 348.884 204.893 343.763 209.005 339.652L216.84 331.894C222.27 336.239 225.451 342.677 225.451 349.814C225.451 354.081 228.942 357.572 233.208 357.572H298.993C303.259 357.572 306.75 354.081 306.75 349.814C306.75 337.014 317.145 326.542 330.023 326.542C334.29 326.542 337.78 323.051 337.78 318.784V123.216C337.78 118.949 334.29 115.458 330.023 115.458C317.223 115.458 306.75 105.063 306.75 92.1853C306.75 87.9187 303.259 84.4278 298.993 84.4278H233.208C228.942 84.4278 225.451 87.9187 225.451 92.1853C225.451 104.985 215.056 115.458 202.178 115.458C197.911 115.458 194.421 118.949 194.421 123.216V284.263L171.148 307.303V62.629H171.225ZM229.64 284.418C224.985 279.686 218.779 277.126 212.108 277.048C212.108 277.048 212.03 277.048 211.953 277.048C211.254 277.048 210.634 277.204 210.013 277.204V130.197C225.218 127.094 237.165 115.148 240.268 99.9429H292.088C295.191 115.148 307.138 127.094 322.343 130.197V311.88C307.138 314.983 295.191 326.93 292.088 342.134H240.268C238.561 333.911 234.217 326.542 227.933 321.034L229.485 319.56C234.217 314.905 236.777 308.699 236.854 302.028C236.854 295.434 234.294 289.15 229.64 284.418ZM138.178 82.0229C132.825 82.0229 128.481 77.6787 128.481 72.3259C128.481 69.7659 129.49 67.2835 131.351 65.4993C133.213 63.715 135.618 62.629 138.178 62.629H155.71V82.0229H138.178ZM160.52 333.136C163.39 334.377 166.726 333.679 168.976 331.507L205.514 295.356C207.298 293.572 209.315 292.719 212.108 292.641C214.59 292.641 216.917 293.65 218.624 295.356C222.193 299.002 222.193 304.898 218.547 308.467L198.144 328.636C192.326 334.454 187.827 341.669 185.189 349.427L173.863 383.25C173.708 383.715 173.553 384.103 173.32 384.491L172.932 385.499C172.234 387.284 171.458 391.783 170.76 392.481L120.258 442.44L65.0241 386.818L109.087 294.425C109.242 294.193 109.397 293.882 109.63 293.65L155.788 247.957V325.921C155.71 329.102 157.65 331.894 160.52 333.136Z"
        fill="black" />
    <path
        d="M461.436 4.9126H70.9199C57.732 4.9126 47.0266 15.6181 47.0266 28.8059V115.768C47.0266 128.956 57.732 139.739 70.9199 139.739H155.71V226.159L98.692 282.634C97.2181 284.108 95.9769 285.814 95.046 287.754L53.0775 375.957L49.9744 372.854C46.6387 369.519 42.1393 367.657 37.3296 367.579H37.252C32.4423 367.579 28.0205 369.441 24.6072 372.777L9.94535 387.439C2.96353 394.42 2.96353 405.824 9.94535 412.806L92.9514 495.812C96.3647 499.225 100.864 501.087 105.674 501.087C110.484 501.087 114.983 499.225 118.396 495.812L133.058 481.15C136.394 477.814 138.256 473.315 138.256 468.505C138.256 463.696 136.394 459.196 132.981 455.783L131.041 453.844L181.776 403.652C183.715 401.713 184.336 398.997 183.715 396.437H350.891C365.165 396.437 376.724 384.801 376.724 370.605V139.739H408.607C412.874 139.739 416.365 136.248 416.365 131.982C416.365 127.715 412.874 124.224 408.607 124.224H376.724V97.5381H394.256C401.005 97.5381 407.288 94.9005 412.098 90.1684C416.908 85.4362 419.468 79.075 419.468 72.3259C419.468 58.4399 408.142 47.1138 394.256 47.1138H138.256C131.507 47.1138 125.223 49.7514 120.413 54.4835C115.604 59.2156 113.044 65.5768 113.044 72.3259C113.044 86.212 124.37 97.5381 138.256 97.5381H155.788V124.224H70.9199C66.2654 124.224 62.5417 120.423 62.5417 115.768V28.8059C62.5417 24.1514 66.2654 20.4277 70.9199 20.4277H461.436C466.091 20.4277 469.814 24.1514 469.814 28.8059V115.768C469.814 120.423 466.091 124.224 461.436 124.224C457.17 124.224 453.679 127.715 453.679 131.982C453.679 136.248 457.17 139.739 461.436 139.739C474.624 139.739 485.33 128.956 485.33 115.768V28.8059C485.33 15.6956 474.624 4.9126 461.436 4.9126ZM121.965 470.134L107.303 484.796C106.139 485.96 105.131 486.037 103.89 484.796L20.8835 401.79C19.9526 400.859 19.9526 399.308 20.8835 398.377L35.5453 383.715C36.0108 383.25 36.5538 383.094 37.1744 383.094C37.795 383.094 38.4156 383.327 38.8811 383.793L121.887 466.799C122.508 467.419 122.585 468.04 122.585 468.505C122.663 468.893 122.508 469.591 121.965 470.134ZM376.646 62.629H394.178C399.531 62.629 403.875 66.9732 403.875 72.3259C403.875 74.8859 402.867 77.3684 401.005 79.1526C399.143 80.9368 396.738 82.0229 394.178 82.0229H376.646V62.629ZM171.225 62.629H361.053V370.527C361.053 376.19 356.399 380.845 350.736 380.845H191.007L199.851 354.391C201.713 348.884 204.893 343.763 209.005 339.652L216.84 331.894C222.27 336.239 225.451 342.677 225.451 349.814C225.451 354.081 228.942 357.572 233.208 357.572H298.993C303.259 357.572 306.75 354.081 306.75 349.814C306.75 337.014 317.145 326.542 330.023 326.542C334.29 326.542 337.78 323.051 337.78 318.784V123.216C337.78 118.949 334.29 115.458 330.023 115.458C317.223 115.458 306.75 105.063 306.75 92.1853C306.75 87.9187 303.259 84.4278 298.993 84.4278H233.208C228.942 84.4278 225.451 87.9187 225.451 92.1853C225.451 104.985 215.056 115.458 202.178 115.458C197.911 115.458 194.421 118.949 194.421 123.216V284.263L171.148 307.303V62.629H171.225ZM229.64 284.418C224.985 279.686 218.779 277.126 212.108 277.048C212.108 277.048 212.03 277.048 211.953 277.048C211.254 277.048 210.634 277.204 210.013 277.204V130.197C225.218 127.094 237.165 115.148 240.268 99.9429H292.088C295.191 115.148 307.138 127.094 322.343 130.197V311.88C307.138 314.983 295.191 326.93 292.088 342.134H240.268C238.561 333.911 234.217 326.542 227.933 321.034L229.485 319.56C234.217 314.905 236.777 308.699 236.854 302.028C236.854 295.434 234.294 289.15 229.64 284.418ZM138.178 82.0229C132.825 82.0229 128.481 77.6787 128.481 72.3259C128.481 69.7659 129.49 67.2835 131.351 65.4993C133.213 63.715 135.618 62.629 138.178 62.629H155.71V82.0229H138.178ZM160.52 333.136C163.39 334.377 166.726 333.679 168.976 331.507L205.514 295.356C207.298 293.572 209.315 292.719 212.108 292.641C214.59 292.641 216.917 293.65 218.624 295.356C222.193 299.002 222.193 304.898 218.547 308.467L198.144 328.636C192.326 334.454 187.827 341.669 185.189 349.427L173.863 383.25C173.708 383.715 173.553 384.103 173.32 384.491L172.932 385.499C172.234 387.284 171.458 391.783 170.76 392.481L120.258 442.44L65.0241 386.818L109.087 294.425C109.242 294.193 109.397 293.882 109.63 293.65L155.788 247.957V325.921C155.71 329.102 157.65 331.894 160.52 333.136Z"
        mask="url(#path-2-outside-1_138_6)" stroke="black" stroke-width="8" />
</svg>
